<svg width="22" height="22" viewBox="0 0 22 22" fill="none" xmlns="http://www.w3.org/2000/svg">
<g clip-path="url(#clip0_288_20917)">
<path d="M11 15.5833V19.25C11 19.7541 10.5875 20.1666 10.0833 20.1666H6.41667C5.9125 20.1666 5.5 19.7541 5.5 19.25C5.5 18.7458 5.9125 18.3333 6.41667 18.3333H9.16667V16.5H4.58333C2.05333 16.5 0 14.4466 0 11.9166V5.49996C0 2.96996 2.05333 0.916626 4.58333 0.916626H15.5833C18.1133 0.916626 20.1667 2.96996 20.1667 5.49996C20.1667 6.00413 19.7542 6.41663 19.25 6.41663C18.7458 6.41663 18.3333 6.00413 18.3333 5.49996C18.3333 3.98746 17.0958 2.74996 15.5833 2.74996H4.58333C3.07083 2.74996 1.83333 3.98746 1.83333 5.49996V11.9166C1.83333 13.4291 3.07083 14.6666 4.58333 14.6666H10.0833C10.5875 14.6666 11 15.0791 11 15.5833ZM22 11.9166V18.3333C22 20.3591 20.3592 22 18.3333 22H16.5C14.4742 22 12.8333 20.3591 12.8333 18.3333V11.9166C12.8333 9.89079 14.4742 8.24996 16.5 8.24996H18.3333C20.3592 8.24996 22 9.89079 22 11.9166ZM20.1667 11.9166C20.1667 10.9083 19.3417 10.0833 18.3333 10.0833H16.5C15.4917 10.0833 14.6667 10.9083 14.6667 11.9166V18.3333C14.6667 19.3416 15.4917 20.1666 16.5 20.1666H18.3333C19.3417 20.1666 20.1667 19.3416 20.1667 18.3333V11.9166Z" fill="currentColor"/>
</g>
<defs>
<clipPath id="clip0_288_20917">
<rect width="22" height="22" fill="currentColor"/>
</clipPath>
</defs>
</svg>
