<svg width="30" height="32" viewBox="0 0 30 32" fill="none" xmlns="http://www.w3.org/2000/svg">
<path d="M23 0H7.00001C3.32001 0 0.333344 2.98667 0.333344 6.66667V25.3333C0.333344 29.0133 3.32001 32 7.00001 32H23C26.68 32 29.6667 29.0133 29.6667 25.3333V6.66667C29.6667 2.98667 26.68 0 23 0ZM7.00001 2.66667H23C25.2 2.66667 27 4.46667 27 6.66667V20H3.00001V6.66667C3.00001 4.46667 4.80001 2.66667 7.00001 2.66667ZM23 29.3333H7.00001C4.80001 29.3333 3.00001 27.5333 3.00001 25.3333V22.6667H27V25.3333C27 27.5333 25.2 29.3333 23 29.3333ZM25.6667 26C25.6667 27.1067 24.7733 28 23.6667 28C22.56 28 21.6667 27.1067 21.6667 26C21.6667 24.8933 22.56 24 23.6667 24C24.7733 24 25.6667 24.8933 25.6667 26ZM20.3333 26C20.3333 27.1067 19.44 28 18.3333 28C17.2267 28 16.3333 27.1067 16.3333 26C16.3333 24.8933 17.2267 24 18.3333 24C19.44 24 20.3333 24.8933 20.3333 26Z" fill="currentColor"/>
</svg>
