<svg width="22" height="22" viewBox="0 0 22 22" fill="none" xmlns="http://www.w3.org/2000/svg">
<g clip-path="url(#clip0_288_20911)">
<path d="M15.5833 0C15.3402 0 15.1071 0.0965771 14.9352 0.268485C14.7632 0.440394 14.6667 0.673552 14.6667 0.916667C14.6667 3.61992 12.2989 4.58333 10.0833 4.58333H3.66667C2.69421 4.58333 1.76158 4.96964 1.07394 5.65728C0.386309 6.34491 0 7.27754 0 8.25L0 10.0833C0.00200215 10.6322 0.12784 11.1735 0.368136 11.6669C0.608431 12.1604 0.956989 12.5932 1.38783 12.9333L4.66217 20.2409C4.89504 20.7644 5.27466 21.2092 5.75508 21.5214C6.23551 21.8336 6.79613 21.9998 7.36908 22C7.82495 21.9997 8.27351 21.8854 8.67393 21.6675C9.07435 21.4496 9.41391 21.135 9.66171 20.7524C9.90951 20.3697 10.0577 19.9312 10.0927 19.4767C10.1278 19.0222 10.0486 18.5661 9.86242 18.15L7.84575 13.75H10.0833C12.2989 13.75 14.6667 14.7134 14.6667 17.4167C14.6667 17.6598 14.7632 17.8929 14.9352 18.0648C15.1071 18.2368 15.3402 18.3333 15.5833 18.3333C15.8264 18.3333 16.0596 18.2368 16.2315 18.0648C16.4034 17.8929 16.5 17.6598 16.5 17.4167V0.916667C16.5 0.673552 16.4034 0.440394 16.2315 0.268485C16.0596 0.0965771 15.8264 0 15.5833 0ZM8.19225 18.9007C8.25297 19.0379 8.2785 19.188 8.26654 19.3375C8.25458 19.4869 8.2055 19.6311 8.12375 19.7568C8.042 19.8825 7.93016 19.9858 7.79838 20.0574C7.6666 20.129 7.51905 20.1665 7.36908 20.1667C7.15036 20.1665 6.93639 20.1029 6.75316 19.9834C6.56993 19.864 6.42533 19.6939 6.33692 19.4938L3.76292 13.75H5.82908L8.19225 18.9007ZM14.6667 13.3833C13.357 12.3743 11.7355 11.8554 10.0833 11.9167H3.66667C3.18044 11.9167 2.71412 11.7235 2.3703 11.3797C2.02649 11.0359 1.83333 10.5696 1.83333 10.0833V8.25C1.83333 7.76377 2.02649 7.29745 2.3703 6.95364C2.71412 6.60982 3.18044 6.41667 3.66667 6.41667H10.0833C11.7349 6.47927 13.3564 5.96203 14.6667 4.95458V13.3833ZM21.9083 14.1643C21.8546 14.2721 21.7801 14.3682 21.6891 14.4472C21.5982 14.5262 21.4926 14.5865 21.3784 14.6246C21.2641 14.6627 21.1435 14.678 21.0233 14.6695C20.9032 14.661 20.7859 14.6289 20.6782 14.575L18.8448 13.6583C18.6272 13.5497 18.4617 13.359 18.3847 13.1283C18.3077 12.8976 18.3255 12.6458 18.4342 12.4282C18.5428 12.2106 18.7335 12.0451 18.9642 11.9681C19.1949 11.891 19.4467 11.9088 19.6643 12.0175L21.4977 12.9342C21.7141 13.0428 21.8788 13.2326 21.9558 13.4623C22.0327 13.6919 22.0157 13.9426 21.9083 14.1597V14.1643ZM18.4342 5.91433C18.3803 5.8066 18.3482 5.68932 18.3397 5.56918C18.3312 5.44903 18.3464 5.32839 18.3846 5.21415C18.4227 5.0999 18.483 4.99429 18.562 4.90336C18.6409 4.81242 18.7371 4.73794 18.8448 4.68417L20.6782 3.7675C20.8958 3.65883 21.1476 3.64104 21.3783 3.71806C21.609 3.79507 21.7997 3.96058 21.9083 4.17817C22.017 4.39575 22.0348 4.6476 21.9578 4.8783C21.8808 5.109 21.7153 5.29966 21.4977 5.40833L19.6643 6.325C19.5566 6.37886 19.4393 6.41096 19.3192 6.41947C19.199 6.42798 19.0784 6.41273 18.9641 6.37459C18.8499 6.33645 18.7443 6.27618 18.6534 6.1972C18.5624 6.11823 18.4879 6.02211 18.4342 5.91433ZM18.3333 9.16667C18.3333 8.92355 18.4299 8.69039 18.6018 8.51849C18.7737 8.34658 19.0069 8.25 19.25 8.25H21.0833C21.3265 8.25 21.5596 8.34658 21.7315 8.51849C21.9034 8.69039 22 8.92355 22 9.16667C22 9.40978 21.9034 9.64294 21.7315 9.81485C21.5596 9.98676 21.3265 10.0833 21.0833 10.0833H19.25C19.0069 10.0833 18.7737 9.98676 18.6018 9.81485C18.4299 9.64294 18.3333 9.40978 18.3333 9.16667Z" fill="currentColor"/>
</g>
<defs>
<clipPath id="clip0_288_20911">
<rect width="22" height="22" fill="white"/>
</clipPath>
</defs>
</svg>
