<svg width="22" height="22" viewBox="0 0 22 22" fill="none" xmlns="http://www.w3.org/2000/svg">
<g clip-path="url(#clip0_288_20923)">
<path d="M21.0833 18.3333H13.5813C13.4444 17.9499 13.224 17.6017 12.9361 17.3139C12.6483 17.026 12.3001 16.8056 11.9167 16.6687V12.8333H17.4167C17.9728 12.8354 18.5163 12.6681 18.9751 12.3538C19.4339 12.0395 19.7862 11.593 19.9852 11.0737C20.1841 10.5544 20.2204 9.98685 20.0891 9.44646C19.9577 8.90606 19.6651 8.41842 19.25 8.04833V3.66667C19.25 2.69421 18.8637 1.76158 18.1761 1.07394C17.4884 0.386308 16.5558 0 15.5833 0L6.41667 0C5.44421 0 4.51158 0.386308 3.82394 1.07394C3.13631 1.76158 2.75 2.69421 2.75 3.66667V8.04833C2.33491 8.41842 2.04226 8.90606 1.91094 9.44646C1.77962 9.98685 1.81586 10.5544 2.01483 11.0737C2.2138 11.593 2.56608 12.0395 3.02486 12.3538C3.48365 12.6681 4.02722 12.8354 4.58333 12.8333H10.0833V16.6687C9.69994 16.8056 9.35174 17.026 9.06386 17.3139C8.77599 17.6017 8.55562 17.9499 8.41867 18.3333H0.916667C0.673552 18.3333 0.440394 18.4299 0.268485 18.6018C0.0965771 18.7737 0 19.0069 0 19.25C0 19.4931 0.0965771 19.7263 0.268485 19.8982C0.440394 20.0701 0.673552 20.1667 0.916667 20.1667H8.41867C8.60534 20.7025 8.95414 21.167 9.41668 21.4956C9.87922 21.8243 10.4326 22.0009 11 22.0009C11.5674 22.0009 12.1208 21.8243 12.5833 21.4956C13.0459 21.167 13.3947 20.7025 13.5813 20.1667H21.0833C21.3264 20.1667 21.5596 20.0701 21.7315 19.8982C21.9034 19.7263 22 19.4931 22 19.25C22 19.0069 21.9034 18.7737 21.7315 18.6018C21.5596 18.4299 21.3264 18.3333 21.0833 18.3333ZM4.58333 3.66667C4.58333 3.18044 4.77649 2.71412 5.1203 2.3703C5.46412 2.02649 5.93044 1.83333 6.41667 1.83333H15.5833C16.0696 1.83333 16.5359 2.02649 16.8797 2.3703C17.2235 2.71412 17.4167 3.18044 17.4167 3.66667V7.33333H14.1295C13.8887 7.33268 13.6501 7.37982 13.4276 7.47203C13.2051 7.56424 13.0031 7.69968 12.8333 7.8705L12.4538 8.25H9.54617L9.16667 7.8705C8.99689 7.69968 8.7949 7.56424 8.57241 7.47203C8.34992 7.37982 8.11134 7.33268 7.8705 7.33333H4.58333V3.66667ZM3.66667 10.0833C3.66667 9.84022 3.76324 9.60706 3.93515 9.43515C4.10706 9.26324 4.34022 9.16667 4.58333 9.16667H7.8705L8.25 9.54617C8.41978 9.71699 8.62176 9.85243 8.84426 9.94464C9.06675 10.0368 9.30532 10.084 9.54617 10.0833H12.4538C12.6947 10.084 12.9333 10.0368 13.1557 9.94464C13.3782 9.85243 13.5802 9.71699 13.75 9.54617L14.1295 9.16667H17.4167C17.6598 9.16667 17.8929 9.26324 18.0648 9.43515C18.2368 9.60706 18.3333 9.84022 18.3333 10.0833C18.3333 10.3264 18.2368 10.5596 18.0648 10.7315C17.8929 10.9034 17.6598 11 17.4167 11H4.58333C4.34022 11 4.10706 10.9034 3.93515 10.7315C3.76324 10.5596 3.66667 10.3264 3.66667 10.0833ZM11 20.1667C10.8187 20.1667 10.6415 20.1129 10.4907 20.0122C10.34 19.9115 10.2225 19.7683 10.1531 19.6008C10.0837 19.4333 10.0656 19.249 10.1009 19.0712C10.1363 18.8934 10.2236 18.73 10.3518 18.6018C10.48 18.4736 10.6434 18.3863 10.8212 18.3509C10.999 18.3156 11.1833 18.3337 11.3508 18.4031C11.5183 18.4725 11.6615 18.59 11.7622 18.7407C11.8629 18.8915 11.9167 19.0687 11.9167 19.25C11.9167 19.4931 11.8201 19.7263 11.6482 19.8982C11.4763 20.0701 11.2431 20.1667 11 20.1667Z" fill="currentColor"/>
</g>
<defs>
<clipPath id="clip0_288_20923">
<rect width="22" height="22" fill="white"/>
</clipPath>
</defs>
</svg>
