<svg width="22" height="22" viewBox="0 0 22 22" fill="none" xmlns="http://www.w3.org/2000/svg">
<g clip-path="url(#clip0_288_20860)">
<path d="M21.0833 20.1667H2.75C2.50688 20.1667 2.27373 20.0701 2.10182 19.8982C1.92991 19.7263 1.83333 19.4931 1.83333 19.25V0.916667C1.83333 0.673552 1.73676 0.440394 1.56485 0.268485C1.39294 0.0965771 1.15978 0 0.916667 0C0.673552 0 0.440394 0.0965771 0.268485 0.268485C0.0965771 0.440394 0 0.673552 0 0.916667L0 19.25C0 19.9793 0.289731 20.6788 0.805456 21.1945C1.32118 21.7103 2.02065 22 2.75 22H21.0833C21.3264 22 21.5596 21.9034 21.7315 21.7315C21.9034 21.5596 22 21.3264 22 21.0833C22 20.8402 21.9034 20.6071 21.7315 20.4352C21.5596 20.2632 21.3264 20.1667 21.0833 20.1667Z" fill="currentColor"/>
<path d="M13.75 18.3334C13.9931 18.3334 14.2263 18.2368 14.3982 18.0649C14.5701 17.893 14.6666 17.6598 14.6666 17.4167V11C14.6666 10.7569 14.5701 10.5238 14.3982 10.3519C14.2263 10.18 13.9931 10.0834 13.75 10.0834C13.5069 10.0834 13.2737 10.18 13.1018 10.3519C12.9299 10.5238 12.8333 10.7569 12.8333 11V17.4167C12.8333 17.6598 12.9299 17.893 13.1018 18.0649C13.2737 18.2368 13.5069 18.3334 13.75 18.3334Z" fill="currentColor"/>
<path d="M6.41667 18.3334C6.65978 18.3334 6.89294 18.2368 7.06485 18.0649C7.23676 17.893 7.33333 17.6598 7.33333 17.4167V11C7.33333 10.7569 7.23676 10.5238 7.06485 10.3519C6.89294 10.18 6.65978 10.0834 6.41667 10.0834C6.17355 10.0834 5.94039 10.18 5.76849 10.3519C5.59658 10.5238 5.5 10.7569 5.5 11V17.4167C5.5 17.6598 5.59658 17.893 5.76849 18.0649C5.94039 18.2368 6.17355 18.3334 6.41667 18.3334Z" fill="currentColor"/>
<path d="M17.4167 18.3333C17.6598 18.3333 17.8929 18.2368 18.0648 18.0648C18.2368 17.8929 18.3333 17.6598 18.3333 17.4167V6.41667C18.3333 6.17355 18.2368 5.94039 18.0648 5.76849C17.8929 5.59658 17.6598 5.5 17.4167 5.5C17.1736 5.5 16.9404 5.59658 16.7685 5.76849C16.5966 5.94039 16.5 6.17355 16.5 6.41667V17.4167C16.5 17.6598 16.5966 17.8929 16.7685 18.0648C16.9404 18.2368 17.1736 18.3333 17.4167 18.3333Z" fill="currentColor"/>
<path d="M10.0834 18.3333C10.3265 18.3333 10.5596 18.2368 10.7315 18.0648C10.9034 17.8929 11 17.6598 11 17.4167V6.41667C11 6.17355 10.9034 5.94039 10.7315 5.76849C10.5596 5.59658 10.3265 5.5 10.0834 5.5C9.84024 5.5 9.60708 5.59658 9.43517 5.76849C9.26326 5.94039 9.16669 6.17355 9.16669 6.41667V17.4167C9.16669 17.6598 9.26326 17.8929 9.43517 18.0648C9.60708 18.2368 9.84024 18.3333 10.0834 18.3333Z" fill="currentColor"/>
</g>
<defs>
<clipPath id="clip0_288_20860">
<rect width="22" height="22" fill="white"/>
</clipPath>
</defs>
</svg>
