<svg width="22" height="22" viewBox="0 0 22 22" fill="none" xmlns="http://www.w3.org/2000/svg">
<g clip-path="url(#clip0_288_20929)">
<path d="M13.75 5.5C13.75 2.46675 11.2833 0 8.25 0C5.21675 0 2.75 2.46675 2.75 5.5C2.75 8.53325 5.21675 11 8.25 11C11.2833 11 13.75 8.53325 13.75 5.5ZM8.25 9.16667C6.22783 9.16667 4.58333 7.52217 4.58333 5.5C4.58333 3.47783 6.22783 1.83333 8.25 1.83333C10.2722 1.83333 11.9167 3.47783 11.9167 5.5C11.9167 7.52217 10.2722 9.16667 8.25 9.16667ZM8.24267 13.6932C8.305 14.1955 7.94934 14.6529 7.44608 14.7162C4.246 15.1158 1.83242 17.8521 1.83242 21.0833C1.83242 21.5893 1.42175 22 0.915751 22C0.409751 22 -0.000915527 21.5893 -0.000915527 21.0833C-0.000915527 16.9299 3.10292 13.4108 7.21875 12.8975C7.71558 12.8343 8.1785 13.1908 8.24175 13.6941L8.24267 13.6932ZM20.8047 17.5386L19.9118 17.0234C20.064 16.5678 20.1667 16.0893 20.1667 15.5824C20.1667 15.0755 20.0649 14.597 19.9118 14.1414L20.8047 13.6263C21.2428 13.3733 21.3932 12.8123 21.1402 12.3741C20.8863 11.935 20.3271 11.7838 19.888 12.0386L18.9961 12.5538C18.3498 11.8259 17.4891 11.2933 16.5 11.0926V10.0833C16.5 9.57733 16.0893 9.16667 15.5833 9.16667C15.0773 9.16667 14.6667 9.57733 14.6667 10.0833V11.0926C13.6776 11.2943 12.8168 11.8268 12.1706 12.5538L11.2787 12.0386C10.8387 11.7847 10.2795 11.935 10.0265 12.3741C9.7735 12.8132 9.92383 13.3733 10.362 13.6263L11.2548 14.1414C11.1027 14.597 11 15.0755 11 15.5824C11 16.0893 11.1018 16.5678 11.2548 17.0234L10.362 17.5386C9.92383 17.7916 9.7735 18.3526 10.0265 18.7908C10.197 19.085 10.5041 19.2491 10.8213 19.2491C10.9762 19.2491 11.1338 19.2097 11.2787 19.1262L12.1706 18.6111C12.8168 19.3389 13.6776 19.8715 14.6667 20.0723V21.0815C14.6667 21.5875 15.0773 21.9982 15.5833 21.9982C16.0893 21.9982 16.5 21.5875 16.5 21.0815V20.0723C17.4891 19.8706 18.3498 19.338 18.9961 18.6111L19.888 19.1262C20.0328 19.2097 20.1905 19.2491 20.3454 19.2491C20.6626 19.2491 20.9706 19.085 21.1402 18.7908C21.3932 18.3517 21.2428 17.7916 20.8047 17.5386ZM15.5833 18.3324C14.0672 18.3324 12.8333 17.0986 12.8333 15.5824C12.8333 14.0663 14.0672 12.8324 15.5833 12.8324C17.0995 12.8324 18.3333 14.0663 18.3333 15.5824C18.3333 17.0986 17.0995 18.3324 15.5833 18.3324Z" fill="currentColor"/>
</g>
<defs>
<clipPath id="clip0_288_20929">
<rect width="22" height="22" fill="white"/>
</clipPath>
</defs>
</svg>
