<svg width="22" height="22" viewBox="0 0 22 22" fill="none" xmlns="http://www.w3.org/2000/svg">
<g clip-path="url(#clip0_288_20888)">
<path d="M19.25 22C17.7338 22 16.5 20.7661 16.5 19.25V11.9166C16.5 11.4116 16.0893 11 15.5833 11H6.41667C5.91067 11 5.5 11.4116 5.5 11.9166V19.25C5.5 20.7661 4.26617 22 2.75 22C1.23383 22 0 20.7661 0 19.25V8.91364C0 7.38739 0.755333 5.96747 2.01942 5.11406L8.43608 0.783725C9.9935 -0.266775 12.0065 -0.266775 13.5639 0.783725L19.9806 5.11406C21.2447 5.96747 22 7.38739 22 8.91364V19.25C22 20.7661 20.7662 22 19.25 22ZM6.41667 9.16664H15.5833C17.0995 9.16664 18.3333 10.4005 18.3333 11.9166V19.25C18.3333 19.7551 18.744 20.1666 19.25 20.1666C19.756 20.1666 20.1667 19.7551 20.1667 19.25V8.91364C20.1667 7.99789 19.7138 7.14539 18.9548 6.63389L12.5382 2.30356C11.6032 1.67289 10.3968 1.67289 9.46275 2.30356L3.04517 6.63389C2.28617 7.14539 1.83333 7.99789 1.83333 8.91364V19.25C1.83333 19.7551 2.244 20.1666 2.75 20.1666C3.256 20.1666 3.66667 19.7551 3.66667 19.25V11.9166C3.66667 10.4005 4.9005 9.16664 6.41667 9.16664ZM10.0833 21.0833V19.25C10.0833 18.744 9.67358 18.3333 9.16667 18.3333H8.25C7.74308 18.3333 7.33333 18.744 7.33333 19.25V21.0833C7.33333 21.5893 7.74308 22 8.25 22H9.16667C9.67358 22 10.0833 21.5893 10.0833 21.0833ZM10.0833 15.5833V13.75C10.0833 13.244 9.67358 12.8333 9.16667 12.8333H8.25C7.74308 12.8333 7.33333 13.244 7.33333 13.75V15.5833C7.33333 16.0893 7.74308 16.5 8.25 16.5H9.16667C9.67358 16.5 10.0833 16.0893 10.0833 15.5833ZM14.6667 21.0833V19.25C14.6667 18.744 14.2569 18.3333 13.75 18.3333H12.8333C12.3264 18.3333 11.9167 18.744 11.9167 19.25V21.0833C11.9167 21.5893 12.3264 22 12.8333 22H13.75C14.2569 22 14.6667 21.5893 14.6667 21.0833Z" fill="currentColor"/>
</g>
<defs>
<clipPath id="clip0_288_20888">
<rect width="22" height="22" fill="white"/>
</clipPath>
</defs>
</svg>
